<?xml version="1.0" encoding="UTF-8" standalone="no"?>
<!-- Generator: Adobe Illustrator 19.0.0, SVG Export Plug-In . SVG Version: 6.00 Build 0)  -->

<svg
   xmlns:dc="http://purl.org/dc/elements/1.1/"
   xmlns:cc="http://creativecommons.org/ns#"
   xmlns:rdf="http://www.w3.org/1999/02/22-rdf-syntax-ns#"
   xmlns:svg="http://www.w3.org/2000/svg"
   xmlns="http://www.w3.org/2000/svg"
   xmlns:sodipodi="http://sodipodi.sourceforge.net/DTD/sodipodi-0.dtd"
   xmlns:inkscape="http://www.inkscape.org/namespaces/inkscape"
   version="1.1"
   id="Capa_1"
   x="0px"
   y="0px"
   viewBox="0 0 59.99 59.99"
   style="enable-background:new 0 0 59.99 59.99;"
   xml:space="preserve"
   sodipodi:docname="clock.svg"
   inkscape:version="0.92.3 (2405546, 2018-03-11)"><metadata
   id="metadata46"><rdf:RDF><cc:Work
       rdf:about=""><dc:format>image/svg+xml</dc:format><dc:type
         rdf:resource="http://purl.org/dc/dcmitype/StillImage" /></cc:Work></rdf:RDF></metadata><defs
   id="defs44" /><sodipodi:namedview
   pagecolor="#ffffff"
   bordercolor="#666666"
   borderopacity="1"
   objecttolerance="10"
   gridtolerance="10"
   guidetolerance="10"
   inkscape:pageopacity="0"
   inkscape:pageshadow="2"
   inkscape:window-width="1920"
   inkscape:window-height="1006"
   id="namedview42"
   showgrid="false"
   inkscape:zoom="15.735956"
   inkscape:cx="4.870652"
   inkscape:cy="28.682648"
   inkscape:window-x="0"
   inkscape:window-y="25"
   inkscape:window-maximized="1"
   inkscape:current-layer="XMLID_6_" />
<g
   id="XMLID_6_">
	<path
   id="XMLID_148_"
   style="fill:#FFC128;"
   d="M29.985,51c-11.579,0-21-9.421-21-21s9.421-21,21-21s21,9.421,21,21   S41.565,51,29.985,51" />
	<path
   id="XMLID_147_"
   style="fill:#FFFFFF;"
   d="M29.985,15c-0.552,0-1-0.447-1-1v-2c0-0.553,0.448-1,1-1c0.552,0,1,0.447,1,1v2   C30.985,14.553,30.537,15,29.985,15" />
	<path
   id="XMLID_146_"
   style="fill:#FFFFFF;"
   d="M29.985,49c-0.552,0-1-0.447-1-1v-2c0-0.553,0.448-1,1-1c0.552,0,1,0.447,1,1v2   C30.985,48.553,30.537,49,29.985,49" />
	<path
   id="XMLID_145_"
   style="fill:#FFFFFF;"
   d="M47.985,31h-2c-0.552,0-1-0.447-1-1c0-0.553,0.448-1,1-1h2c0.552,0,1,0.447,1,1   C48.985,30.553,48.537,31,47.985,31" />
	<path
   id="XMLID_144_"
   style="fill:#FFFFFF;"
   d="M13.985,31h-2c-0.552,0-1-0.447-1-1c0-0.553,0.448-1,1-1h2c0.552,0,1,0.447,1,1   C14.985,30.553,14.537,31,13.985,31" />
	<path
   id="XMLID_141_"
   style="fill:#FFFFFF;"
   d="M29.985,33c-2.206,0-4-1.794-4-4s1.794-4,4-4c2.206,0,4,1.794,4,4   S32.192,33,29.985,33 M29.985,27c-1.103,0-2,0.897-2,2s0.897,2,2,2c1.103,0,2-0.897,2-2S31.088,27,29.985,27" />
	<path
   id="XMLID_140_"
   style="fill:#FFFFFF;"
   d="M29.985,27c-0.552,0-1-0.447-1-1v-6c0-0.553,0.448-1,1-1c0.552,0,1,0.447,1,1v6   C30.985,26.553,30.537,27,29.985,27" />
	<path
   id="XMLID_139_"
   style="fill:#ffffff;stroke-width:0.92406505"
   d="m 28.038518,26.939293 c 0.04108,0.232965 -0.007,0.481659 -0.153195,0.690403 -0.293079,0.418563 -0.868215,0.519975 -1.286776,0.226894 l -9.504868,-6.655381 c -0.418562,-0.29308 -0.519973,-0.868217 -0.226894,-1.286777 0.29308,-0.418562 0.868216,-0.519973 1.286778,-0.226894 l 9.504869,6.655382 c 0.208587,0.145251 0.339007,0.363407 0.380086,0.596373"
   inkscape:connector-curvature="0" />
</g>
<g
   id="g11">
</g>
<g
   id="g13">
</g>
<g
   id="g15">
</g>
<g
   id="g17">
</g>
<g
   id="g19">
</g>
<g
   id="g21">
</g>
<g
   id="g23">
</g>
<g
   id="g25">
</g>
<g
   id="g27">
</g>
<g
   id="g29">
</g>
<g
   id="g31">
</g>
<g
   id="g33">
</g>
<g
   id="g35">
</g>
<g
   id="g37">
</g>
<g
   id="g39">
</g>
</svg>